<?xml version="1.0" standalone="no"?>
<!DOCTYPE svg PUBLIC "-//W3C//DTD SVG 20010904//EN"
 "http://www.w3.org/TR/2001/REC-SVG-20010904/DTD/svg10.dtd">
<svg version="1.0" xmlns="http://www.w3.org/2000/svg"
 width="1171.000000pt" height="1280.000000pt" viewBox="0 0 1171.000000 1280.000000"
 preserveAspectRatio="xMidYMid meet">

<g transform="translate(0.000000,1280.000000) scale(0.100000,-0.100000)"
fill="#000000" stroke="none">
<path d="M5807 12495 c-27 -7 -56 -20 -65 -28 -9 -8 -32 -18 -50 -22 -18 -4
-37 -15 -42 -25 -15 -28 -13 -30 16 -20 14 6 66 10 115 10 50 0 99 5 110 10
25 14 24 45 -1 70 -23 23 -19 23 -83 5z"/>
<path d="M6008 12490 c-30 -18 -20 -39 25 -51 49 -13 424 -9 446 6 22 13 -159
41 -319 49 -88 4 -141 3 -152 -4z"/>
<path d="M6298 12395 c-2 -2 -116 -5 -253 -7 -254 -4 -305 -12 -305 -45 0 -15
55 -19 64 -4 8 12 256 12 256 0 0 -5 -29 -9 -64 -9 -36 0 -68 -4 -71 -10 -3
-5 -18 -10 -32 -10 -40 0 -138 -20 -226 -45 -42 -13 -80 -19 -83 -14 -7 12
-24 11 -24 -1 0 -5 7 -10 15 -10 20 0 19 -17 -2 -29 -26 -14 -7 -26 20 -13 22
12 115 32 146 32 22 0 -41 -38 -76 -46 -16 -3 -41 -12 -58 -19 -16 -7 -49 -21
-72 -31 -24 -10 -43 -21 -43 -26 0 -13 44 -9 65 6 21 14 184 46 239 46 l31 0
-23 18 c-29 23 -19 32 34 32 52 0 65 -16 27 -33 -15 -6 -28 -16 -28 -22 0 -17
-99 -102 -127 -109 -29 -7 -229 -119 -321 -180 -30 -20 -57 -36 -61 -36 -10 0
-107 -71 -171 -125 -133 -113 -156 -123 -115 -49 l21 36 -21 5 c-11 3 -20 7
-20 9 0 11 54 84 61 84 5 0 9 5 9 11 0 6 7 17 15 25 8 9 15 19 15 24 0 5 -19
-9 -42 -30 -24 -22 -46 -40 -50 -40 -12 0 -9 25 3 37 6 6 16 20 23 31 6 10 32
48 59 83 26 34 47 66 47 70 0 13 -85 -4 -135 -28 -27 -12 -66 -23 -86 -23 -19
0 -44 -7 -55 -15 -10 -8 -38 -24 -61 -34 -24 -11 -43 -24 -43 -30 0 -9 -39
-32 -127 -75 -13 -6 -23 -14 -23 -18 0 -5 -7 -8 -15 -8 -8 0 -15 -6 -15 -13 0
-7 -22 -23 -50 -35 -27 -12 -50 -26 -50 -32 0 -5 -7 -10 -15 -10 -7 0 -18 -6
-22 -12 -10 -16 -43 -42 -43 -35 0 3 10 17 23 30 68 75 87 97 87 104 0 10 58
43 75 43 7 0 15 6 17 12 3 7 11 13 19 14 8 0 22 2 32 2 9 1 17 9 17 17 0 12
-7 14 -27 9 -46 -10 -97 -36 -120 -61 -12 -12 -26 -23 -30 -23 -13 0 -73 -57
-73 -69 0 -6 -7 -11 -15 -11 -8 0 -15 -4 -15 -10 0 -5 -7 -10 -15 -10 -18 0
-19 12 -3 28 7 7 9 12 6 12 -3 0 -24 -18 -46 -39 -22 -22 -48 -41 -58 -43 -18
-3 -114 -133 -114 -154 0 -6 -9 -23 -20 -37 -11 -14 -33 -49 -48 -79 -16 -29
-43 -78 -61 -110 -35 -62 -18 -52 -256 -144 -743 -284 -1437 -736 -2010 -1309
-1260 -1260 -1859 -3023 -1634 -4809 11 -88 21 -162 23 -165 2 -3 7 -31 11
-61 9 -70 11 -80 18 -110 4 -14 18 -81 33 -150 43 -209 171 -646 227 -780 l14
-31 16 25 c10 14 17 28 17 31 0 3 8 18 19 33 60 88 104 165 191 336 54 106
122 232 151 280 30 48 59 95 64 104 84 139 264 334 395 428 110 80 376 224
413 224 7 0 17 4 22 8 12 11 150 60 270 97 50 15 114 36 143 46 30 11 64 19
77 19 13 0 34 4 47 9 30 13 112 34 228 61 142 32 216 50 305 75 33 9 78 19
100 22 22 3 45 9 50 13 10 7 99 35 146 44 30 6 50 25 130 126 64 78 135 161
207 239 33 36 39 47 26 49 -9 2 -20 -2 -25 -9 -4 -7 -11 -10 -14 -7 -9 8 0 18
110 130 91 91 143 133 301 243 47 33 114 81 148 107 121 92 257 180 270 175 7
-3 16 -15 19 -26 4 -16 -37 -64 -202 -232 -357 -367 -347 -356 -772 -934 -28
-38 -100 -120 -159 -181 -136 -142 -173 -191 -299 -399 -57 -93 -116 -186
-131 -205 -34 -44 -108 -189 -150 -295 -17 -44 -37 -93 -45 -110 -27 -59 -65
-166 -65 -183 0 -9 -6 -37 -14 -62 -8 -25 -29 -97 -46 -160 -18 -63 -49 -167
-70 -230 -20 -63 -52 -162 -69 -220 -18 -58 -39 -121 -47 -140 -7 -19 -23 -73
-34 -120 -12 -47 -32 -121 -45 -165 -12 -44 -37 -132 -55 -195 -17 -63 -37
-131 -45 -150 -7 -19 -19 -57 -25 -85 -7 -27 -19 -60 -26 -72 -8 -12 -14 -34
-14 -48 0 -15 -8 -47 -19 -73 -10 -26 -24 -67 -31 -92 -7 -25 -18 -61 -26 -81
-7 -20 -11 -39 -8 -42 3 -3 -9 -35 -25 -72 -17 -37 -28 -71 -25 -76 7 -13 -25
-110 -44 -131 -11 -13 -13 -32 -10 -70 3 -29 1 -64 -4 -78 -8 -22 -1 -32 84
-113 98 -94 322 -289 398 -347 25 -19 47 -37 50 -40 8 -9 146 -110 240 -176
170 -119 537 -344 562 -344 5 0 8 12 8 28 0 15 6 37 14 48 8 12 16 53 18 100
4 84 40 337 63 444 8 39 16 160 20 300 7 310 26 532 75 910 5 36 9 94 9 130 1
71 43 397 66 500 8 36 16 99 19 140 6 82 45 288 77 408 11 43 27 100 34 127 7
28 21 84 30 125 32 148 46 202 59 234 7 17 16 53 20 79 4 27 14 51 21 54 8 2
17 14 21 25 3 10 19 34 35 53 33 38 59 122 59 192 0 26 4 72 10 102 5 31 14
94 20 141 17 139 28 190 50 232 11 21 27 76 35 121 31 172 38 204 61 282 13
44 24 86 24 93 0 8 6 28 14 45 8 18 22 59 31 92 28 99 83 200 156 285 38 43
77 83 85 88 12 7 20 40 30 123 8 63 18 144 24 181 5 37 10 96 10 132 0 78 15
86 47 29 12 -21 30 -47 40 -58 17 -18 28 -47 49 -124 3 -13 38 -56 78 -95 39
-40 108 -113 154 -164 46 -51 90 -92 97 -92 8 0 56 -39 107 -87 155 -146 169
-156 298 -203 19 -7 58 -15 85 -18 28 -2 55 -8 61 -13 6 -5 33 -12 60 -15 27
-4 54 -10 59 -15 34 -26 394 -55 408 -32 5 8 28 13 57 13 28 0 50 3 50 8 0 4
4 13 9 21 7 11 15 7 37 -18 27 -30 31 -31 54 -19 14 7 32 19 40 25 8 7 38 31
65 53 28 23 67 57 87 76 20 19 41 34 46 34 5 0 17 11 26 25 9 14 23 25 30 25
8 0 16 4 18 8 4 12 129 92 213 137 39 20 81 45 95 55 14 9 35 21 48 24 12 4
22 11 22 16 0 5 9 12 21 15 27 9 141 83 156 103 7 8 18 12 26 9 20 -8 10 -97
-19 -171 -13 -33 -24 -64 -24 -70 -1 -6 -9 -29 -20 -51 -11 -22 -20 -47 -20
-55 0 -8 -11 -37 -25 -65 -13 -27 -25 -57 -25 -66 0 -9 -7 -22 -15 -29 -8 -7
-15 -25 -15 -41 0 -16 -4 -29 -9 -29 -14 0 -23 -32 -12 -43 5 -5 7 -17 4 -26
-14 -40 -98 -143 -169 -209 -76 -71 -91 -103 -33 -69 17 9 35 17 41 17 5 0 16
7 25 15 12 12 18 13 29 4 11 -9 22 -6 49 15 19 15 40 37 46 48 7 12 20 29 29
38 9 8 23 35 31 60 8 25 22 61 31 80 10 19 18 39 18 46 0 6 9 33 21 60 45 108
61 150 89 242 17 57 37 191 40 265 0 4 5 7 12 7 8 0 10 -38 6 -142 -3 -79 -4
-149 -1 -155 9 -24 21 -13 28 23 6 35 9 288 3 315 -2 7 10 15 27 19 32 7 35
22 8 52 -13 14 -13 20 -3 33 30 37 54 10 94 -110 28 -82 32 -104 67 -360 19
-141 20 -164 8 -382 -12 -222 -12 -234 6 -267 21 -38 19 -61 -21 -231 -8 -38
-18 -92 -21 -118 -3 -28 -11 -51 -19 -54 -9 -3 -14 -20 -14 -47 0 -22 -10 -75
-21 -116 -12 -41 -24 -95 -28 -120 -5 -34 -10 -45 -24 -44 -11 1 -17 -5 -17
-18 0 -10 -12 -54 -26 -98 -18 -55 -23 -89 -19 -114 5 -24 2 -43 -11 -64 -20
-35 -14 -59 18 -64 21 -3 23 -9 26 -63 5 -88 -39 -291 -72 -335 -25 -33 -76
-157 -76 -186 0 -12 -5 -35 -10 -49 -6 -15 -17 -61 -25 -103 -8 -43 -19 -91
-25 -108 -5 -17 -16 -64 -24 -105 -32 -164 -46 -223 -61 -246 -9 -13 -13 -32
-10 -43 3 -10 1 -21 -5 -25 -5 -3 -10 -18 -10 -33 0 -15 -11 -63 -25 -107 -14
-44 -25 -88 -25 -97 0 -10 -6 -32 -14 -50 -8 -18 -22 -62 -30 -98 -18 -71 -36
-138 -92 -335 -63 -224 -72 -257 -98 -375 -15 -63 -31 -130 -37 -149 -7 -19
-17 -60 -25 -90 -36 -155 -74 -291 -121 -426 -35 -104 -44 -133 -86 -275 -48
-164 -65 -216 -112 -345 -26 -72 -53 -150 -61 -175 -8 -25 -21 -59 -29 -77 -8
-17 -15 -37 -15 -43 0 -7 -11 -44 -25 -82 -14 -38 -25 -73 -25 -79 0 -5 106
-9 265 -9 206 0 299 4 422 20 265 34 658 123 918 207 l120 39 6 365 c13 722
37 1665 45 1744 24 235 32 1070 14 1335 -24 339 -32 421 -45 495 -18 104 -23
189 -30 480 -4 132 -11 255 -17 274 -6 20 -8 72 -5 126 4 77 2 99 -14 135 -10
23 -19 52 -19 64 0 38 -59 253 -86 313 -8 17 -14 36 -14 43 0 20 -32 110 -41
116 -5 3 -9 15 -9 27 0 13 -31 85 -70 161 -38 75 -70 146 -70 157 0 11 -12 32
-26 46 -21 21 -25 32 -20 58 4 22 2 38 -7 47 -8 7 -16 39 -20 71 -5 53 -4 56
13 47 10 -5 23 -22 29 -37 6 -16 15 -35 21 -43 5 -8 34 -64 64 -125 29 -60 74
-150 100 -200 25 -49 73 -157 106 -238 33 -81 65 -155 70 -165 22 -40 70 -154
70 -167 0 -7 7 -26 15 -41 8 -16 15 -43 15 -60 0 -17 9 -43 20 -57 11 -14 23
-46 26 -71 4 -25 15 -56 25 -67 18 -21 18 -21 13 28 -8 66 5 77 77 62 30 -5
68 -15 85 -20 17 -5 38 -9 48 -9 24 0 252 -65 426 -122 100 -33 222 -87 249
-112 9 -8 27 -20 41 -26 14 -6 48 -24 75 -40 28 -16 64 -37 80 -45 17 -8 50
-28 75 -45 25 -16 52 -33 60 -37 23 -10 147 -103 230 -172 41 -34 95 -79 120
-99 24 -20 65 -55 89 -77 25 -22 63 -56 85 -75 98 -87 332 -327 696 -715 31
-33 100 -105 152 -160 52 -55 122 -129 154 -165 32 -37 78 -83 102 -104 36
-33 82 -109 82 -137 0 -19 66 -149 75 -146 12 4 148 265 231 446 569 1237 680
2661 309 3968 -340 1199 -1041 2237 -2030 3004 -204 158 -446 319 -674 447
-156 88 -420 222 -436 222 -16 0 -10 -69 10 -115 29 -66 66 -199 76 -272 13
-87 5 -436 -10 -476 -14 -35 -43 -43 -61 -16 -16 24 -54 111 -77 177 -9 23
-24 47 -34 53 -11 5 -19 19 -19 30 0 12 -11 30 -25 41 -14 11 -39 48 -56 81
-34 71 -65 127 -97 177 -12 19 -22 49 -22 66 0 59 -11 91 -36 103 -29 13 -30
25 -4 51 22 22 19 40 -7 40 -13 0 -15 10 -11 60 2 33 1 55 -3 48 -12 -19 -59
7 -59 33 0 12 -8 23 -19 26 -11 3 -24 18 -30 34 -9 25 -15 29 -48 29 -27 0
-42 6 -51 20 -7 11 -17 20 -24 20 -7 0 -29 19 -51 42 -23 25 -49 42 -65 44
-15 1 -47 10 -72 20 -25 10 -79 20 -120 23 -69 6 -75 8 -78 29 -2 14 4 29 15
37 22 17 10 32 -31 37 -16 2 -31 9 -34 16 -6 19 83 16 103 -5 12 -12 37 -17
89 -19 39 -1 94 -6 121 -11 28 -5 64 -6 80 -3 l30 6 -24 13 -25 14 22 18 22
17 -43 36 c-24 20 -52 36 -61 36 -25 0 -77 32 -73 45 2 5 19 13 38 16 l34 5
-30 8 c-16 5 -47 12 -67 17 -36 9 -50 31 -28 44 17 11 11 20 -26 40 -19 10
-40 27 -45 36 -7 13 -18 16 -42 13 -35 -5 -46 0 -62 30 -11 19 -109 51 -124
41 -16 -9 -71 19 -71 37 0 25 35 23 53 -3 9 -13 17 -16 22 -10 3 6 16 11 29
11 12 0 31 6 41 14 17 12 16 14 -17 20 -19 3 -49 3 -66 0 -19 -4 -38 -2 -47 6
-8 6 -19 9 -25 5 -6 -4 -20 1 -30 10 -15 14 -30 16 -63 12 -46 -6 -82 6 -59
21 20 13 180 8 194 -6 15 -15 45 -16 54 -1 10 18 -37 49 -73 49 -18 0 -33 4
-33 8 0 5 -18 14 -40 21 -41 12 -52 35 -28 59 9 9 9 12 1 12 -7 0 -15 -4 -18
-10 -9 -14 -38 -12 -71 5 -16 8 -43 15 -61 15 -37 0 -54 19 -24 27 41 11 20
21 -51 26 -40 2 -113 12 -162 22 -87 18 -88 18 -66 35 l23 17 -24 17 -23 16
33 0 c18 0 44 9 58 20 23 18 41 20 157 20 101 0 137 -3 152 -15 10 -8 35 -15
55 -15 34 0 123 -26 165 -48 10 -5 60 -28 109 -51 50 -23 97 -46 105 -51 8 -5
47 -27 85 -50 183 -106 231 -148 321 -288 19 -30 34 -58 34 -64 0 -6 9 -8 20
-5 11 3 20 1 20 -4 0 -5 7 -9 14 -9 8 0 21 -11 28 -24 7 -13 47 -80 89 -148
42 -68 79 -135 82 -150 4 -14 14 -29 23 -32 64 -25 -129 327 -250 456 -24 25
-58 66 -74 90 -77 108 -226 220 -344 257 -20 7 -42 19 -48 27 -7 7 -17 14 -22
14 -12 0 -230 108 -294 146 -31 18 -63 27 -106 30 -62 4 -67 1 -17 -10 15 -3
29 -15 32 -26 5 -21 -7 -28 -18 -10 -3 6 -27 10 -53 10 -59 1 -199 25 -215 38
-7 6 -48 12 -92 15 -44 2 -112 7 -152 10 -40 2 -73 3 -75 2z m132 -211 c52
-11 13 -24 -72 -24 -88 0 -106 17 -25 23 28 2 55 4 58 5 4 1 21 -1 39 -4z
m-539 -69 c-1 -15 -24 -12 -29 3 -3 9 2 13 12 10 10 -1 17 -7 17 -13z m589 -4
c0 -13 -29 -17 -92 -13 -84 6 -71 22 17 22 41 0 75 -4 75 -9z m207 3 c-3 -3
-12 -4 -19 -1 -8 3 -5 6 6 6 11 1 17 -2 13 -5z m-452 -34 c-3 -5 -27 -10 -53
-10 -34 0 -43 3 -32 10 20 13 93 13 85 0z m-105 -19 c0 -11 -80 -20 -86 -10
-5 9 20 16 59 18 15 0 27 -3 27 -8z m-112 -44 c14 -14 12 -19 -20 -51 -40 -40
-48 -43 -48 -21 0 8 6 15 13 15 8 0 22 9 31 19 17 19 17 20 -2 30 -15 8 -29 7
-56 -4 -33 -14 -37 -14 -43 1 -3 9 0 20 8 25 20 14 98 4 117 -14z m-158 -24
c-8 -3 -19 -12 -23 -19 -4 -8 -16 -14 -25 -14 -10 0 -26 -6 -37 -14 -11 -7
-38 -16 -59 -20 -22 -4 -49 -14 -60 -22 -12 -8 -39 -19 -60 -25 -21 -6 -45
-17 -53 -25 -8 -8 -22 -14 -32 -14 -35 0 -30 14 11 35 24 12 66 33 93 47 28
14 68 32 90 41 22 8 51 19 65 25 14 6 43 11 65 11 22 -1 33 -3 25 -6z m68 -49
c12 -8 22 -22 22 -30 0 -16 -26 -19 -35 -4 -3 6 -15 10 -25 10 -21 0 -34 15
-25 30 9 15 37 12 63 -6z m142 -3 c0 -9 -24 -21 -41 -21 -5 0 -9 7 -9 15 0 9
9 15 25 15 14 0 25 -4 25 -9z m750 -1 c0 -5 -6 -10 -14 -10 -8 0 -18 5 -21 10
-3 6 3 10 14 10 12 0 21 -4 21 -10z m-992 -44 c5 -23 -14 -36 -50 -36 -32 0
-36 15 -10 41 21 23 56 20 60 -5z m92 -36 c0 -5 -4 -10 -10 -10 -5 0 -10 5
-10 10 0 6 5 10 10 10 6 0 10 -4 10 -10z m-540 -84 c0 -3 -4 -8 -10 -11 -5 -3
-10 -1 -10 4 0 6 5 11 10 11 6 0 10 -2 10 -4z m1965 -85 c19 -8 19 -8 -2 -15
-27 -9 -66 1 -58 15 7 11 32 11 60 0z m-1490 -561 c3 -5 25 -11 48 -11 l42 -2
-50 -7 c-27 -5 -96 -9 -153 -9 -164 -2 -110 -17 85 -25 234 -9 327 -17 340
-29 3 -4 28 -7 55 -7 48 0 64 -14 31 -27 -15 -6 -14 -8 7 -14 14 -4 45 -7 70
-8 31 -1 69 -13 124 -41 43 -22 86 -40 95 -40 9 0 30 -8 47 -19 16 -10 46 -21
65 -24 110 -18 150 -30 159 -47 7 -12 26 -21 58 -25 73 -10 77 -12 58 -34 -16
-17 -15 -19 15 -25 17 -3 46 -6 65 -6 30 0 64 -21 64 -40 0 -5 12 -11 28 -15
16 -4 38 -22 54 -46 16 -21 34 -38 40 -37 8 2 14 -9 16 -25 2 -16 10 -31 18
-34 19 -7 18 -50 -2 -61 -24 -13 -8 -35 16 -22 20 11 32 -3 64 -72 10 -20 51
-72 91 -116 54 -58 86 -104 120 -173 25 -51 50 -96 54 -99 14 -8 81 -137 81
-155 0 -8 5 -16 10 -16 45 -6 68 -26 75 -69 4 -22 12 -40 19 -40 17 0 54 -51
62 -86 4 -16 16 -45 26 -64 16 -30 18 -48 12 -122 -4 -48 -8 -113 -9 -145 -2
-32 -6 -80 -9 -108 -28 -216 -29 -238 -14 -249 20 -15 52 -65 45 -72 -3 -3
-28 17 -56 45 -47 47 -81 65 -81 41 0 -5 4 -10 10 -10 12 0 34 -40 26 -47 -6
-7 -66 17 -66 26 0 10 -69 45 -76 39 -3 -3 16 -27 42 -52 l46 -46 -7 -116 c-4
-64 -11 -131 -16 -148 -5 -17 -9 -42 -9 -55 0 -13 -7 -29 -16 -35 -14 -11 -11
-46 5 -46 11 0 50 100 45 114 -3 8 2 16 10 19 9 4 19 24 22 47 4 23 15 51 26
63 10 12 25 31 32 42 14 20 14 20 36 0 21 -19 22 -24 15 -151 -5 -83 -4 -134
3 -137 9 -6 22 57 22 112 0 14 5 33 10 41 8 13 11 13 26 -2 14 -14 19 -48 26
-195 9 -185 6 -241 -16 -249 -6 -2 -12 -19 -12 -37 0 -20 -16 -61 -39 -102
-48 -85 -105 -210 -105 -231 0 -9 -6 -30 -14 -47 -8 -18 -21 -59 -29 -92 -9
-33 -23 -87 -32 -120 -10 -33 -21 -76 -26 -95 -4 -19 -12 -51 -18 -70 -6 -19
-15 -57 -21 -85 -29 -128 -69 -234 -126 -335 -7 -14 -14 -34 -14 -45 0 -16 -2
-17 -10 -5 -5 8 -12 11 -16 7 -4 -3 -1 -13 5 -21 8 -10 9 -16 1 -21 -5 -3 -10
-16 -10 -27 0 -34 -50 -130 -64 -125 -7 3 -27 -6 -45 -20 -27 -21 -31 -30 -26
-54 6 -28 -7 -40 -20 -19 -4 6 -11 7 -17 4 -6 -4 -6 -10 1 -17 6 -6 11 -17 11
-25 0 -20 -49 -80 -70 -87 -10 -3 -28 -21 -39 -41 -11 -19 -33 -40 -48 -46
-15 -7 -34 -18 -41 -25 -18 -17 -32 -16 -32 1 0 21 -37 26 -70 9 -17 -8 -30
-18 -30 -22 0 -4 -11 -13 -24 -20 -13 -7 -29 -24 -35 -37 -6 -13 -16 -24 -22
-24 -6 0 -27 -14 -46 -30 -41 -37 -84 -40 -106 -7 -14 22 -15 22 -35 3 -12
-10 -28 -16 -37 -12 -24 9 -14 40 13 44 30 5 64 38 60 60 -2 11 -15 18 -35 20
-25 2 -35 -2 -48 -22 -17 -26 -42 -25 -58 1 -10 17 -43 17 -54 1 -4 -7 -8 -40
-9 -73 -1 -77 -24 -122 -67 -133 -23 -6 -35 -16 -42 -38 -5 -16 -10 -30 -11
-32 -1 -2 -12 6 -23 17 -23 23 -51 28 -51 9 0 -18 12 -33 33 -41 9 -3 17 -16
17 -29 0 -21 0 -21 -28 5 -36 35 -56 36 -48 2 5 -20 3 -25 -14 -25 -16 0 -20
-7 -20 -30 0 -29 -13 -40 -25 -20 -11 17 -25 11 -25 -11 0 -29 -18 -59 -36
-59 -8 0 -17 -7 -20 -15 -4 -8 -12 -15 -20 -15 -8 0 -14 7 -14 15 0 21 -47 19
-59 -2 -6 -11 -21 -17 -45 -16 -34 1 -36 -1 -36 -29 0 -34 -23 -34 -28 0 -4
26 -32 30 -32 5 -1 -10 -10 -29 -21 -43 -20 -24 -21 -24 -35 -5 -14 19 -15 19
-40 -8 -28 -30 -35 -32 -52 -15 -8 8 -15 8 -25 0 -18 -15 -30 -3 -16 14 16 20
0 36 -28 29 -18 -4 -32 0 -48 15 -20 19 -22 26 -13 62 5 22 6 43 3 46 -3 3 -5
0 -5 -6 0 -12 -43 -62 -54 -62 -3 0 -6 7 -6 15 0 20 -17 19 -28 -1 -16 -29
-35 -6 -27 33 8 44 -15 42 -29 -3 -18 -59 -37 -94 -51 -94 -18 0 -18 0 0 43 8
20 15 48 15 62 0 14 7 37 16 51 9 13 13 28 10 32 -12 11 -36 -29 -42 -69 -5
-28 -16 -44 -42 -63 -38 -27 -52 -26 -52 5 0 12 -7 19 -19 19 -25 0 -38 -20
-20 -31 7 -4 10 -12 5 -16 -9 -9 -46 33 -46 53 0 17 -22 18 -37 3 -19 -19 -80
-2 -88 24 -7 19 -9 16 -14 -18 -3 -23 -11 -40 -18 -39 -31 2 -34 5 -28 23 5
15 -1 24 -24 35 -16 9 -36 25 -45 37 -13 19 -68 59 -81 59 -3 0 -5 -9 -5 -21
0 -31 -24 -18 -28 15 -2 17 4 36 15 48 18 21 18 21 -9 14 -23 -5 -28 -3 -28
12 0 11 -9 31 -20 45 -11 14 -20 40 -20 60 0 39 -14 55 -34 38 -10 -8 -18 -6
-32 10 -12 14 -27 19 -43 16 -33 -7 -51 1 -51 23 0 13 5 17 20 13 30 -8 24 16
-7 28 -22 8 -30 7 -39 -5 -16 -23 -27 -20 -58 14 -18 21 -25 37 -21 50 4 12 2
20 -4 20 -6 0 -11 -4 -11 -10 0 -29 -43 3 -165 121 -86 83 -141 129 -150 125
-18 -6 -81 65 -90 102 -3 15 -17 44 -30 64 -13 20 -27 48 -31 63 -6 23 -8 24
-19 9 -12 -17 -35 -12 -35 8 0 6 7 19 16 29 10 11 13 25 9 38 -7 24 -25 28
-25 6 0 -40 -22 -9 -68 95 -33 74 -82 253 -98 355 -38 248 -54 469 -54 745 0
186 -2 210 -20 245 -17 33 -20 59 -20 161 0 82 5 135 15 164 8 23 15 72 15
109 0 76 24 237 38 254 6 7 15 38 22 70 6 31 16 57 21 57 16 0 10 -102 -7
-121 -14 -15 -14 -25 -4 -66 6 -26 16 -84 21 -128 10 -88 60 -257 78 -263 15
-5 14 38 -2 69 -8 14 -17 45 -21 70 -4 24 -11 58 -16 74 -42 143 -46 251 -6
191 9 -14 21 -48 26 -76 9 -47 28 -90 40 -90 6 0 29 197 37 318 4 63 2 73 -14
78 -10 3 -31 11 -46 16 -27 10 -27 11 -8 24 11 8 44 16 73 17 40 3 54 8 56 20
3 15 18 17 98 17 65 0 102 4 117 14 17 11 68 16 212 18 126 3 197 8 212 16 30
17 72 5 85 -24 8 -17 19 -24 40 -24 16 0 39 -7 52 -15 16 -11 33 -14 51 -9
l27 7 -31 13 c-18 8 -30 18 -26 24 9 15 92 12 118 -4 12 -7 56 -19 98 -26 78
-13 109 -24 97 -35 -11 -11 -89 -8 -101 4 -6 6 -29 11 -52 10 -37 -1 -38 -1
-13 -9 15 -4 35 -15 44 -24 9 -10 35 -17 65 -17 27 -1 55 -2 62 -3 6 -1 12 9
12 21 1 32 12 38 35 18 13 -11 18 -25 14 -37 -7 -23 19 -24 71 -2 30 12 44 13
63 4 17 -7 28 -8 35 -1 16 16 6 20 -63 24 -48 2 -65 7 -65 18 0 8 10 14 24 14
14 0 26 6 29 13 2 6 -3 12 -12 12 -19 0 -21 30 -3 49 10 11 9 12 -1 6 -9 -4
-24 3 -42 20 -33 32 -30 58 6 49 18 -5 24 -2 24 10 0 12 -7 16 -27 14 -21 -2
-30 3 -38 20 -7 16 -26 28 -65 39 -30 9 -68 26 -83 39 -16 13 -39 24 -51 24
-12 0 -31 7 -42 15 -10 8 -33 15 -51 15 -17 0 -35 5 -38 10 -3 6 -19 10 -35
10 -16 0 -44 9 -62 20 -31 18 -33 19 -39 2 -5 -15 -22 -17 -141 -17 -130 0
-136 -1 -176 -27 -48 -32 -72 -35 -73 -10 -1 16 -2 16 -6 0 -2 -10 -30 -33
-61 -53 -63 -39 -108 -95 -98 -121 5 -13 9 -15 18 -6 15 15 73 15 100 1 12 -6
42 -13 67 -15 90 -7 161 -17 157 -21 -2 -3 -89 -7 -193 -9 -103 -3 -201 -10
-218 -15 -16 -6 -73 -14 -125 -19 -52 -5 -104 -12 -115 -15 -11 -3 -29 1 -40
8 -17 13 -18 18 -7 42 7 15 15 55 18 89 6 66 40 147 60 139 8 -3 14 17 19 64
4 37 11 76 16 85 5 9 12 45 15 80 3 35 9 74 14 88 5 14 18 57 30 95 24 80 46
109 111 147 26 15 49 38 53 50 6 22 7 22 24 -10 l18 -33 12 25 c22 49 42 144
51 247 5 57 14 117 20 132 6 16 11 40 11 55 0 34 55 167 86 208 13 16 44 45
69 63 45 32 46 32 52 12 5 -21 23 -30 23 -12 0 5 11 19 25 32 13 13 25 32 25
42 0 9 5 17 11 17 5 0 15 14 20 30 12 32 33 40 43 14 3 -8 11 -12 16 -9 17 11
38 -14 32 -37 -3 -11 -1 -19 4 -17 5 3 22 11 37 19 23 11 34 11 62 1 19 -7 40
-9 46 -6 6 4 16 0 22 -8 11 -14 17 -14 52 -1 22 8 60 14 85 14 48 -1 132 11
215 31 28 6 92 11 143 9 85 -1 96 0 118 21 22 20 33 23 103 20 47 -1 82 2 86
9 8 13 32 13 40 0z m-269 -19 c-18 -7 -66 -3 -66 5 0 2 19 4 43 3 30 0 36 -3
23 -8z m-409 -27 c-3 -3 -12 -4 -19 -1 -8 3 -5 6 6 6 11 1 17 -2 13 -5z m1096
-6 c-15 -7 -30 -7 -50 0 -26 10 -24 10 22 11 42 0 46 -2 28 -11z m-2173 -902
c0 -8 -4 -18 -10 -21 -5 -3 -10 3 -10 14 0 12 5 21 10 21 6 0 10 -6 10 -14z
m-339 -859 c0 -56 5 -75 39 -143 40 -79 47 -104 32 -104 -15 0 -72 88 -72 112
-1 12 -7 34 -15 48 -15 26 -21 151 -8 164 15 15 25 -15 24 -77z m84 63 c3 -5
-3 -10 -14 -10 -12 0 -21 5 -21 10 0 6 6 10 14 10 8 0 18 -4 21 -10z m-2 -142
c7 -23 1 -38 -14 -38 -5 0 -9 14 -9 30 0 35 15 40 23 8z m4207 -310 c0 -7 -9
-24 -19 -37 -16 -21 -19 -22 -25 -6 -10 27 3 55 25 55 10 0 19 -6 19 -12z
m-50 -97 c0 -10 -7 -24 -15 -31 -8 -7 -15 -19 -15 -27 0 -8 -4 -12 -10 -8 -5
3 -6 14 0 28 4 12 11 30 14 40 7 23 26 22 26 -2z m-1381 -2550 c9 -6 10 -11 2
-15 -13 -8 -31 1 -31 15 0 11 11 11 29 0z m-79 -141 c0 -5 -4 -10 -10 -10 -5
0 -10 5 -10 10 0 6 5 10 10 10 6 0 10 -4 10 -10z m-1680 -71 c0 -24 -31 -5
-45 27 -8 20 -15 38 -15 39 0 2 14 -10 30 -27 17 -16 30 -34 30 -39z m1740 41
c0 -5 -4 -10 -10 -10 -5 0 -10 5 -10 10 0 6 5 10 10 10 6 0 10 -4 10 -10z
m-542 -311 c-2 -6 -8 -10 -13 -10 -5 0 -11 4 -13 10 -2 6 4 11 13 11 9 0 15
-5 13 -11z m-728 -14 c0 -8 -7 -15 -15 -15 -8 0 -15 7 -15 15 0 8 7 15 15 15
8 0 15 -7 15 -15z m50 5 c0 -5 -7 -10 -16 -10 -8 0 -12 5 -9 10 3 6 10 10 16
10 5 0 9 -4 9 -10z m50 0 c0 -5 -4 -10 -10 -10 -5 0 -10 5 -10 10 0 6 5 10 10
10 6 0 10 -4 10 -10z m210 3 c0 -5 -4 -15 -10 -23 -11 -18 -25 -7 -17 15 6 15
27 21 27 8z m-60 -14 c0 -12 -29 -38 -42 -39 -15 0 -8 29 10 39 23 14 32 13
32 0z m130 -13 c0 -16 -14 -36 -26 -36 -14 0 -19 22 -7 33 7 8 33 10 33 3z
m-1721 -72 c-5 -21 -14 -48 -19 -59 -4 -11 -11 -29 -15 -40 -6 -19 -7 -19 -16
-2 -12 21 0 64 32 116 25 42 32 37 18 -15z m-559 -960 c0 -8 -7 -14 -15 -14
-15 0 -21 21 -9 33 10 9 24 -2 24 -19z m-13 -80 c-3 -3 -12 -4 -19 -1 -8 3 -5
6 6 6 11 1 17 -2 13 -5z m-4 -54 c13 0 17 -5 13 -17 -2 -10 -7 -33 -11 -50 -9
-43 -25 -42 -25 1 0 19 -4 38 -10 41 -5 3 -10 16 -10 28 0 16 3 18 12 9 7 -7
20 -12 31 -12z m-50 -80 c3 -12 -1 -24 -11 -29 -16 -9 -16 -11 0 -23 12 -9 16
-21 12 -35 -9 -32 -20 -29 -33 8 -14 41 -14 72 1 87 17 17 25 15 31 -8z m17
-171 c0 -11 -4 -17 -10 -14 -5 3 -10 13 -10 21 0 8 5 14 10 14 6 0 10 -9 10
-21z"/>
<path d="M4595 10920 c-3 -5 3 -10 15 -10 12 0 18 5 15 10 -3 6 -10 10 -15 10
-5 0 -12 -4 -15 -10z"/>
<path d="M7320 10265 c0 -8 5 -15 10 -15 6 0 10 7 10 15 0 8 -4 15 -10 15 -5
0 -10 -7 -10 -15z"/>
<path d="M4590 9720 c0 -5 9 -10 21 -10 11 0 17 5 14 10 -3 6 -13 10 -21 10
-8 0 -14 -4 -14 -10z"/>
<path d="M4798 9708 c8 -8 17 -8 34 0 22 10 21 11 -11 11 -27 1 -32 -2 -23
-11z"/>
<path d="M4030 9566 c0 -31 6 -34 13 -6 3 11 1 23 -4 26 -5 3 -9 -6 -9 -20z"/>
<path d="M5440 9455 c0 -8 5 -15 10 -15 6 0 10 7 10 15 0 8 -4 15 -10 15 -5 0
-10 -7 -10 -15z"/>
<path d="M6548 9447 c-20 -7 -54 -27 -74 -45 -40 -35 -41 -36 -118 -29 -43 3
-52 0 -78 -25 -17 -17 -27 -35 -24 -44 4 -9 -1 -14 -14 -14 -11 0 -20 -7 -20
-15 0 -8 -7 -15 -15 -15 -17 0 -20 -16 -6 -25 5 -3 9 -29 8 -58 -2 -48 0 -53
27 -68 l30 -16 -48 -22 c-27 -11 -56 -21 -65 -21 -9 0 -22 -5 -28 -11 -8 -8
-67 -12 -170 -13 -145 -1 -161 1 -193 20 -19 12 -55 24 -80 27 -33 4 -52 13
-70 35 -14 16 -37 32 -52 36 -26 6 -28 4 -28 -22 0 -15 5 -33 12 -40 16 -16
23 -194 10 -247 -27 -103 -42 -144 -70 -190 -18 -27 -37 -61 -44 -75 -6 -14
-18 -33 -26 -42 -8 -10 -16 -36 -18 -59 -2 -23 -17 -69 -33 -102 -45 -90 -23
-116 41 -49 50 52 60 70 233 397 47 89 62 112 109 158 44 45 51 48 85 43 20
-4 50 -8 68 -11 18 -2 42 -14 55 -27 26 -26 68 -156 77 -239 4 -31 11 -63 17
-70 6 -8 14 -32 17 -53 4 -22 18 -76 32 -120 20 -63 36 -91 71 -128 25 -27 49
-48 55 -48 14 0 11 27 -5 33 -19 8 -39 73 -31 104 9 38 12 384 3 389 -4 3 -8
-4 -8 -16 0 -12 -4 -18 -10 -15 -13 8 -13 68 1 82 8 8 6 18 -5 35 -14 21 -15
36 -7 90 5 36 14 75 20 86 16 29 51 52 81 52 36 0 105 36 84 44 -9 3 -27 6
-40 6 -13 0 -24 4 -24 9 0 16 41 24 105 23 36 -1 73 4 92 13 19 9 43 13 58 9
38 -9 20 -24 -31 -24 -24 0 -44 -5 -44 -10 0 -6 -15 -17 -32 -25 l-33 -14 37
-1 c20 0 39 4 42 9 3 4 38 11 78 15 40 4 91 9 113 12 61 7 120 5 292 -11 38
-3 71 -1 88 7 20 9 31 9 44 1 10 -6 57 -11 104 -11 48 -1 92 -4 98 -7 6 -4 38
-11 72 -15 34 -4 87 -19 117 -34 50 -24 56 -25 67 -10 17 23 5 74 -23 105 -13
14 -24 30 -24 36 0 15 -68 73 -85 73 -8 0 -15 7 -15 15 0 8 -7 15 -15 15 -7 0
-18 7 -22 15 -5 8 -29 21 -53 28 -33 10 -45 18 -45 32 0 17 -10 21 -59 27 -32
4 -67 15 -76 23 -9 9 -24 13 -33 9 -9 -3 -31 -1 -49 5 -18 5 -89 13 -158 16
-69 3 -165 7 -215 9 -52 3 -106 -1 -127 -7z"/>
<path d="M5460 9416 c0 -9 7 -16 16 -16 9 0 14 5 12 12 -6 18 -28 21 -28 4z"/>
<path d="M5460 9350 c0 -5 9 -10 20 -10 11 0 20 5 20 10 0 6 -9 10 -20 10 -11
0 -20 -4 -20 -10z"/>
<path d="M4203 9323 c15 -2 37 -2 50 0 12 2 0 4 -28 4 -27 0 -38 -2 -22 -4z"/>
<path d="M4831 9211 c-11 -7 -9 -10 8 -16 26 -8 49 4 30 16 -17 11 -21 11 -38
0z"/>
<path d="M5480 9189 c23 -22 35 -28 38 -19 6 16 -33 50 -56 50 -11 0 -5 -10
18 -31z"/>
<path d="M4710 9200 c0 -12 8 -12 35 0 18 8 17 9 -7 9 -16 1 -28 -3 -28 -9z"/>
<path d="M4933 9203 c9 -2 23 -2 30 0 6 3 -1 5 -18 5 -16 0 -22 -2 -12 -5z"/>
<path d="M4591 9180 c-10 -5 -9 -8 2 -13 7 -3 19 -2 26 3 10 5 9 8 -2 13 -7 3
-19 2 -26 -3z"/>
<path d="M4872 9154 c-8 -14 -18 -16 -57 -11 -38 6 -46 4 -42 -7 8 -21 -81
-31 -103 -11 -19 17 -67 20 -90 5 -13 -9 -13 -11 0 -20 8 -5 22 -10 30 -10 8
-1 -4 -10 -28 -22 -45 -22 -69 -18 -36 7 11 8 14 15 7 15 -20 0 -61 -40 -99
-97 -39 -58 -38 -79 2 -61 19 9 30 9 45 0 27 -17 40 -15 107 18 38 18 76 30
101 30 36 0 41 -3 41 -22 0 -13 6 -43 13 -68 12 -38 21 -49 60 -70 25 -13 48
-33 50 -42 6 -21 37 -24 37 -4 0 8 -7 16 -15 20 -8 3 -15 13 -15 22 0 9 -8 23
-17 30 -35 26 42 16 81 -11 20 -14 41 -25 46 -25 18 0 10 -18 -10 -23 -11 -3
-20 -10 -20 -16 0 -22 43 -10 102 30 60 41 60 42 54 80 -5 31 -3 39 9 39 26 0
85 -33 91 -52 3 -10 17 -21 32 -24 15 -4 34 -13 43 -20 10 -9 27 -12 47 -8 33
7 42 21 18 30 -8 3 -12 13 -9 25 3 10 0 33 -7 50 -16 38 -107 112 -128 104 -8
-3 -30 6 -48 20 -25 19 -51 27 -97 32 -56 5 -63 8 -63 27 1 23 -10 24 -89 12
-32 -5 -36 -5 -17 4 13 5 22 16 20 22 -7 20 -35 21 -46 2z m88 -184 c9 -16 6
-22 -19 -34 -28 -15 -29 -15 -24 7 9 39 12 47 22 47 6 0 15 -9 21 -20z"/>
<path d="M4670 9150 c0 -13 11 -13 30 0 12 8 11 10 -7 10 -13 0 -23 -4 -23
-10z"/>
<path d="M5040 9120 c0 -5 11 -10 25 -10 14 0 25 5 25 10 0 6 -11 10 -25 10
-14 0 -25 -4 -25 -10z"/>
<path d="M7580 9030 c0 -5 6 -10 14 -10 8 0 18 5 21 10 3 6 -3 10 -14 10 -12
0 -21 -4 -21 -10z"/>
<path d="M6707 8963 c-96 -3 -127 -7 -124 -16 2 -7 16 -11 32 -9 15 2 35 0 43
-3 14 -5 14 -7 2 -15 -8 -6 -27 -10 -43 -10 -15 0 -35 -4 -45 -10 -9 -5 -35
-17 -56 -26 -70 -32 -186 -167 -163 -190 3 -3 19 2 36 12 27 16 32 16 48 2 10
-8 29 -18 43 -21 14 -3 35 -9 48 -12 21 -7 22 -5 17 18 -4 14 -4 34 -1 45 9
28 77 72 110 72 26 0 27 -2 22 -37 -8 -53 12 -101 57 -137 36 -29 44 -31 121
-31 94 0 116 12 174 93 26 37 32 55 30 84 -2 21 1 38 5 39 21 3 87 -33 111
-61 21 -26 26 -42 26 -87 l0 -56 76 6 c67 6 134 30 134 48 0 3 -9 14 -19 23
-11 10 -25 30 -31 46 -7 16 -21 32 -31 35 -10 4 -19 10 -19 14 0 18 -83 63
-108 58 -19 -4 -32 3 -52 24 -17 19 -41 32 -64 36 -22 3 -51 18 -68 35 -23 23
-37 28 -77 28 -27 0 -61 1 -77 3 -16 2 -87 2 -157 0z m282 -32 c23 -15 -6 -23
-57 -15 -45 8 -45 8 -17 15 43 10 58 10 74 0z m-236 -8 c-7 -2 -21 -2 -30 0
-10 3 -4 5 12 5 17 0 24 -2 18 -5z m107 -174 c0 -5 -7 -9 -15 -9 -15 0 -20 12
-9 23 8 8 24 -1 24 -14z"/>
<path d="M6535 8920 c3 -5 13 -10 21 -10 8 0 12 5 9 10 -3 6 -13 10 -21 10 -8
0 -12 -4 -9 -10z"/>
<path d="M3880 8756 c0 -70 20 -185 39 -231 30 -70 32 -72 26 -27 -3 23 -8 77
-11 120 -5 68 -39 212 -50 212 -2 0 -4 -33 -4 -74z"/>
<path d="M5210 8750 c0 -5 5 -10 10 -10 6 0 10 5 10 10 0 6 -4 10 -10 10 -5 0
-10 -4 -10 -10z"/>
<path d="M5067 8693 c-12 -12 -40 -20 -90 -24 l-72 -6 76 -1 c78 -2 156 19
144 38 -10 16 -39 12 -58 -7z"/>
<path d="M4020 8604 c0 -9 9 -27 20 -41 24 -30 26 -14 5 27 -17 34 -25 38 -25
14z"/>
<path d="M4206 8350 c12 -5 25 -13 29 -19 3 -6 14 -11 23 -10 13 0 12 3 -5 11
-13 6 -23 15 -23 20 0 4 -10 8 -22 7 l-23 0 21 -9z"/>
<path d="M4306 8315 c-3 -8 -1 -15 4 -15 6 0 10 7 10 15 0 8 -2 15 -4 15 -2 0
-6 -7 -10 -15z"/>
<path d="M4373 8278 c2 -7 10 -13 17 -13 7 0 15 6 18 13 2 7 -5 12 -18 12 -13
0 -20 -5 -17 -12z"/>
<path d="M4480 8265 c0 -11 76 -35 114 -35 22 -1 52 -7 66 -15 18 -10 63 -14
167 -15 93 0 144 -4 149 -11 4 -7 26 -9 63 -5 67 7 215 24 219 25 2 1 0 6 -3
11 -4 6 -11 8 -16 5 -15 -10 -376 -5 -474 5 -49 5 -123 13 -163 16 -40 4 -75
11 -78 15 -5 9 -44 13 -44 4z"/>
<path d="M6170 8205 c0 -27 175 -134 193 -116 13 13 0 31 -24 31 -10 0 -19 4
-19 8 0 5 -22 18 -50 30 -27 12 -50 26 -50 30 0 5 -11 14 -25 20 -20 9 -25 9
-25 -3z"/>
<path d="M6606 8025 c4 -11 20 -15 53 -14 l46 0 -45 15 c-57 17 -61 17 -54 -1z"/>
<path d="M6779 8008 c17 -18 377 -18 406 -1 16 10 -22 12 -199 13 -176 0 -217
-2 -207 -12z"/>
<path d="M5304 7811 c-28 -3 -58 -12 -67 -19 -10 -9 -17 -10 -22 -2 -9 15 -25
12 -25 -4 0 -7 12 -22 27 -31 22 -15 30 -15 46 -6 13 9 39 10 81 6 75 -9 92
-17 100 -51 5 -19 10 -23 19 -15 7 5 23 8 35 4 29 -7 28 12 -2 52 -42 55 -106
77 -192 66z"/>
<path d="M6085 7770 c-38 -10 -98 -33 -105 -40 -18 -20 -62 -38 -102 -43 -60
-8 -121 -33 -113 -47 9 -14 41 -12 54 4 6 7 30 13 53 13 26 0 46 6 53 16 7 10
20 14 32 11 11 -3 37 2 58 10 20 9 60 16 87 16 50 0 144 -25 154 -41 7 -12 54
-11 54 1 0 6 -11 10 -24 10 -17 0 -31 10 -43 30 -17 30 -85 71 -114 69 -8 -1
-27 -5 -44 -9z"/>
<path d="M5932 7452 c-15 -5 -16 -39 -1 -47 6 -4 16 0 22 8 7 8 20 19 31 24
17 9 15 11 -11 15 -16 2 -35 2 -41 0z"/>
<path d="M5859 7402 c6 -12 5 -25 -5 -42 -7 -14 -13 -41 -14 -60 0 -20 -5 -41
-11 -47 -8 -8 -6 -20 6 -43 12 -24 20 -29 28 -21 16 16 54 14 61 -4 4 -10 20
-15 51 -15 48 0 82 -13 101 -38 8 -12 23 -13 64 -8 42 6 56 4 71 -10 25 -22
28 -18 34 44 4 42 2 52 -10 52 -11 0 -14 6 -9 25 5 21 3 24 -10 19 -23 -9 -49
15 -35 32 18 22 0 38 -21 19 -21 -19 -44 -11 -36 12 8 19 -21 73 -38 73 -8 0
-16 7 -20 15 -6 17 -42 20 -51 5 -3 -5 -18 -10 -32 -10 -14 0 -32 -8 -39 -17
-12 -17 -14 -16 -41 10 -34 31 -59 37 -44 9z m146 -42 c3 -5 1 -10 -4 -10 -6
0 -11 5 -11 10 0 6 2 10 4 10 3 0 8 -4 11 -10z m55 -20 c0 -11 -4 -20 -10 -20
-5 0 -10 9 -10 20 0 11 5 20 10 20 6 0 10 -9 10 -20z m-152 -15 c19 -23 19
-27 3 -60 -24 -51 -46 -42 -47 20 0 74 10 83 44 40z m239 -135 c0 -29 -4 -40
-15 -40 -10 0 -13 7 -8 23 3 12 6 32 6 45 0 13 4 21 9 18 4 -3 8 -24 8 -46z"/>
<path d="M5390 7389 c0 -8 9 -20 20 -27 11 -7 20 -8 20 -4 0 5 -9 17 -20 27
-15 14 -20 15 -20 4z"/>
<path d="M5508 7379 c-16 -11 -28 -26 -28 -33 0 -7 -16 -34 -35 -59 -41 -54
-45 -72 -12 -63 12 3 57 6 100 6 58 0 78 3 75 13 -3 6 -14 13 -26 15 -21 3
-32 32 -12 32 6 0 10 5 10 10 0 6 -13 10 -30 10 -32 0 -42 23 -15 34 15 5 22
56 8 56 -5 0 -20 -10 -35 -21z"/>
<path d="M5588 7338 c-2 -7 13 -31 34 -52 25 -26 38 -34 38 -23 0 9 -4 18 -9
22 -5 3 -12 19 -16 35 -7 31 -39 43 -47 18z"/>
<path d="M5007 7316 c-16 -20 -17 -20 -30 -3 -18 22 -32 22 -49 -1 -7 -10 -33
-24 -58 -32 -59 -18 -70 -27 -70 -58 0 -14 -10 -36 -22 -49 l-22 -24 22 -6
c28 -7 28 -27 1 -64 -22 -32 -22 -65 2 -63 11 1 14 -7 11 -32 -3 -25 0 -35 13
-40 20 -8 54 29 55 58 0 36 145 33 197 -5 6 -4 27 -5 46 -2 22 4 47 1 72 -9
29 -12 72 -17 169 -17 72 0 148 -5 169 -11 46 -14 57 -5 26 21 -17 15 -39 20
-79 21 -59 0 -208 34 -224 50 -6 6 -27 10 -47 10 -21 0 -44 7 -53 15 -8 8 -21
15 -28 15 -18 0 -58 28 -58 41 0 5 7 9 15 9 9 0 33 9 55 20 22 11 50 20 63 20
50 0 73 62 41 108 -18 26 -50 29 -75 6 -23 -20 -46 -12 -51 17 -4 31 -66 34
-91 5z m193 -56 c0 -13 -7 -20 -20 -20 -13 0 -20 7 -20 20 0 13 7 20 20 20 13
0 20 -7 20 -20z m-123 -46 c-3 -3 -12 -4 -19 -1 -8 3 -5 6 6 6 11 1 17 -2 13
-5z m-216 -57 c-13 -13 -26 -3 -16 12 3 6 11 8 17 5 6 -4 6 -10 -1 -17z"/>
<path d="M5270 7287 c0 -18 7 -27 24 -31 18 -4 23 -11 19 -26 -6 -23 0 -25 27
-10 15 8 18 17 13 43 -3 17 -6 33 -7 34 -1 0 -18 4 -38 8 -36 7 -38 6 -38 -18z"/>
<path d="M6249 7263 c5 -10 17 -40 27 -68 9 -27 23 -54 31 -58 7 -4 13 -13 13
-20 0 -6 14 -25 31 -43 l30 -31 -27 -22 c-15 -11 -35 -21 -45 -21 -10 0 -21
-4 -24 -10 -3 -5 -18 -10 -33 -10 -15 0 -45 -7 -67 -15 -53 -19 -94 -19 -116
1 -20 18 -34 13 -42 -15 -4 -17 2 -21 40 -27 33 -5 55 -2 80 10 31 15 36 15
64 0 25 -12 51 -14 132 -10 56 3 111 7 122 8 16 2 21 -4 23 -29 2 -17 10 -37
18 -43 8 -7 14 -18 14 -25 0 -6 9 -20 19 -29 24 -22 57 -13 67 17 3 12 13 30
21 39 23 26 33 87 26 161 -6 73 -9 75 -70 45 -12 -6 -34 -7 -50 -3 -24 6 -25
8 -10 16 21 12 22 38 2 45 -8 4 -36 -3 -61 -15 -50 -24 -65 -21 -57 10 4 16
11 19 32 15 14 -3 32 -2 40 3 19 12 6 45 -16 37 -9 -4 -24 1 -34 10 -18 16
-19 16 -19 -15 0 -26 -4 -32 -17 -29 -11 2 -18 12 -17 26 0 12 -5 22 -13 22
-7 0 -13 -7 -13 -16 0 -30 -17 -4 -24 36 -5 34 -12 42 -42 55 -46 19 -46 19
-35 -2z m211 -228 c-13 -16 -40 -20 -40 -7 0 14 12 22 33 22 16 0 17 -3 7 -15z
m107 -51 c-3 -3 -12 -4 -19 -1 -8 3 -5 6 6 6 11 1 17 -2 13 -5z"/>
<path d="M6262 7109 c1 -13 8 -23 13 -21 15 3 12 35 -3 40 -9 3 -13 -3 -10
-19z"/>
<path d="M5166 7113 c-11 -11 -6 -23 8 -23 8 0 17 4 20 9 7 10 -19 23 -28 14z"/>
<path d="M5888 7073 c7 -3 16 -2 19 1 4 3 -2 6 -13 5 -11 0 -14 -3 -6 -6z"/>
<path d="M5831 6946 c-11 -5 -21 -13 -21 -18 0 -10 127 -11 134 0 8 14 -89 29
-113 18z"/>
<path d="M5743 6913 c-24 -9 -13 -24 15 -21 15 2 26 8 25 13 -2 12 -23 16 -40
8z"/>
<path d="M5665 6900 c3 -5 10 -10 16 -10 5 0 9 5 9 10 0 6 -7 10 -16 10 -8 0
-12 -4 -9 -10z"/>
<path d="M5424 6560 c-31 -12 -36 -25 -28 -75 4 -32 11 -45 23 -45 9 0 25 -13
36 -30 16 -23 25 -28 45 -23 14 3 30 10 37 15 15 12 33 2 85 -46 17 -15 25
-17 39 -8 10 7 25 9 34 6 25 -10 85 5 85 21 0 18 27 20 33 3 6 -20 59 3 74 32
10 20 9 27 -2 41 -8 8 -15 27 -15 41 0 40 -21 50 -102 48 -119 -2 -276 8 -297
20 -22 11 -19 11 -47 0z"/>
<path d="M7225 6550 c3 -5 10 -10 16 -10 5 0 9 5 9 10 0 6 -7 10 -16 10 -8 0
-12 -4 -9 -10z"/>
<path d="M4475 6530 c3 -5 8 -10 11 -10 2 0 4 5 4 10 0 6 -5 10 -11 10 -5 0
-7 -4 -4 -10z"/>
<path d="M4760 6516 c0 -14 5 -26 10 -26 6 0 10 9 10 19 0 11 -4 23 -10 26 -6
4 -10 -5 -10 -19z"/>
<path d="M7117 6436 c-19 -29 -14 -35 10 -11 8 8 13 20 11 26 -2 7 -12 0 -21
-15z"/>
<path d="M5540 6365 c0 -8 7 -15 15 -15 8 0 15 4 15 9 0 5 -7 11 -15 15 -9 3
-15 0 -15 -9z"/>
<path d="M6491 6227 c-12 -15 -5 -27 16 -27 7 0 13 9 13 20 0 23 -13 26 -29 7z"/>
<path d="M5360 5989 c0 -5 5 -7 10 -4 6 3 10 8 10 11 0 2 -4 4 -10 4 -5 0 -10
-5 -10 -11z"/>
<path d="M5610 5966 c0 -19 4 -37 9 -40 11 -7 25 49 16 64 -13 21 -25 9 -25
-24z"/>
<path d="M5907 5833 c-4 -3 -7 -11 -7 -17 0 -6 5 -5 12 2 6 6 9 14 7 17 -3 3
-9 2 -12 -2z"/>
<path d="M5817 5823 c-4 -3 -7 -15 -7 -25 0 -26 24 -17 28 10 3 21 -8 29 -21
15z"/>
<path d="M5435 12370 c-17 -7 -14 -9 13 -9 20 -1 31 3 27 9 -7 12 -13 12 -40
0z"/>
<path d="M5690 12360 c-8 -5 -29 -10 -47 -10 -17 0 -34 -4 -38 -9 -18 -29 71
-21 106 10 23 20 7 27 -21 9z"/>
<path d="M5190 12310 c-13 -8 -69 -33 -190 -87 -19 -8 -42 -19 -50 -24 -8 -4
-34 -18 -57 -29 -39 -20 -56 -40 -34 -40 5 0 45 18 88 39 43 22 96 47 118 56
22 10 54 23 70 30 17 8 37 16 45 20 8 3 31 15 50 25 l35 19 -30 0 c-16 0 -37
-4 -45 -9z"/>
<path d="M5485 12280 c3 -5 12 -10 20 -10 8 0 17 5 20 10 4 6 -5 10 -20 10
-15 0 -24 -4 -20 -10z"/>
<path d="M5361 12234 c-24 -13 -50 -24 -57 -24 -14 0 -29 -18 -21 -26 3 -3 25
4 50 15 25 12 51 21 56 21 6 0 11 5 11 10 0 6 6 10 14 10 8 0 18 5 21 10 11
18 -29 9 -74 -16z"/>
<path d="M5445 12200 c-4 -6 8 -10 30 -10 22 0 34 4 30 10 -3 6 -17 10 -30 10
-13 0 -27 -4 -30 -10z"/>
<path d="M5378 12163 c7 -3 16 -2 19 1 4 3 -2 6 -13 5 -11 0 -14 -3 -6 -6z"/>
<path d="M7031 12031 c-12 -8 -10 -11 11 -16 32 -8 58 -4 61 10 3 13 -54 18
-72 6z"/>
<path d="M7230 11981 c0 -13 -8 -21 -22 -23 -13 -2 -22 -7 -21 -13 3 -16 30
-17 44 -2 8 8 21 12 30 10 10 -3 26 0 36 5 17 10 17 11 -2 17 -11 4 -28 11
-37 16 -25 13 -28 12 -28 -10z"/>
<path d="M4718 11883 c6 -2 18 -2 25 0 6 3 1 5 -13 5 -14 0 -19 -2 -12 -5z"/>
<path d="M7665 11420 c3 -5 12 -7 20 -3 21 7 19 13 -6 13 -11 0 -18 -4 -14
-10z"/>
<path d="M7316 11382 c-2 -4 2 -15 9 -25 11 -16 15 -16 41 -2 16 8 35 15 42
15 7 0 10 5 7 10 -7 12 -92 14 -99 2z"/>
<path d="M7458 11373 c7 -3 16 -2 19 1 4 3 -2 6 -13 5 -11 0 -14 -3 -6 -6z"/>
<path d="M7658 11373 c7 -3 16 -2 19 1 4 3 -2 6 -13 5 -11 0 -14 -3 -6 -6z"/>
<path d="M8060 11258 c0 -23 11 -48 21 -48 14 0 11 24 -6 46 -12 16 -14 17
-15 2z"/>
<path d="M4196 5784 c-4 -15 -2 -32 3 -37 8 -8 11 0 11 26 0 44 -5 47 -14 11z"/>
<path d="M4164 5676 c-22 -57 51 -237 168 -416 183 -281 186 -291 138 -536
-17 -87 -37 -188 -45 -224 -8 -36 -17 -92 -20 -125 -11 -92 -50 -206 -88 -250
-47 -56 -108 -142 -140 -196 -21 -37 -25 -54 -20 -85 5 -33 40 -115 73 -176 6
-10 10 -23 10 -29 0 -6 7 -25 14 -42 19 -40 66 -172 75 -212 4 -17 13 -39 19
-50 6 -11 20 -50 32 -87 12 -36 28 -72 36 -78 8 -7 14 -30 14 -54 1 -22 14
-88 31 -146 17 -58 37 -133 45 -168 14 -61 60 -150 71 -138 6 6 -18 100 -43
169 -8 20 -14 50 -14 65 0 15 -5 33 -11 39 -6 6 -15 29 -20 50 -4 21 -16 74
-26 118 -18 76 -19 105 -9 220 3 28 5 54 5 59 1 5 4 6 8 3 10 -10 53 34 53 54
0 9 14 44 30 77 17 34 30 67 30 74 0 8 6 22 14 33 21 31 27 96 27 281 -1 124
3 185 14 220 17 57 19 88 5 79 -5 -3 -10 -2 -10 4 0 14 35 105 64 166 13 28
29 64 34 82 19 58 -6 223 -34 223 -14 0 -24 22 -24 55 0 12 -16 40 -36 61 -27
30 -34 45 -30 66 3 16 0 31 -9 38 -8 7 -15 24 -15 39 0 28 -48 159 -67 182 -6
8 -14 24 -17 36 -4 12 -29 41 -55 65 -51 47 -141 162 -141 183 0 7 -13 28 -28
48 -28 34 -36 56 -68 169 -16 61 -30 79 -40 54z m537 -1068 c7 -97 -2 -158
-22 -158 -10 0 -12 163 -2 173 13 13 23 7 24 -15z"/>
<path d="M4251 5595 c0 -31 2 -36 9 -23 6 10 7 25 1 40 -9 20 -10 18 -10 -17z"/>
<path d="M7246 5548 c-3 -7 -7 -40 -11 -73 -3 -33 -12 -79 -21 -104 -10 -30
-12 -47 -5 -54 7 -7 12 -6 14 4 2 8 10 30 17 49 15 41 29 190 17 190 -4 0 -9
-6 -11 -12z"/>
<path d="M6248 5128 c9 -9 15 -9 24 0 9 9 7 12 -12 12 -19 0 -21 -3 -12 -12z"/>
<path d="M5320 4888 c-19 -5 -69 -13 -110 -18 -41 -5 -93 -14 -115 -21 -120
-36 -164 -52 -159 -60 8 -14 47 -11 70 5 11 8 46 16 79 19 126 10 308 52 302
70 -5 16 -24 17 -67 5z"/>
<path d="M4909 4715 c-5 -20 -3 -65 4 -65 4 0 7 9 7 19 0 11 3 26 6 35 3 9 1
16 -5 16 -6 0 -12 -2 -12 -5z"/>
<path d="M7162 4620 c0 -14 2 -19 5 -12 2 6 2 18 0 25 -3 6 -5 1 -5 -13z"/>
<path d="M5184 4376 c-3 -8 -1 -23 5 -33 9 -15 10 -13 11 15 0 34 -7 42 -16
18z"/>
<path d="M4670 4255 c0 -8 5 -15 10 -15 6 0 10 7 10 15 0 8 -4 15 -10 15 -5 0
-10 -7 -10 -15z"/>
<path d="M6258 4193 c7 -3 16 -2 19 1 4 3 -2 6 -13 5 -11 0 -14 -3 -6 -6z"/>
<path d="M6169 4126 c8 -9 8 -16 2 -20 -5 -4 -9 -24 -8 -45 1 -38 1 -39 25
-23 13 8 21 21 18 29 -4 8 -6 28 -6 44 0 23 -4 29 -21 29 -17 0 -19 -3 -10
-14z"/>
<path d="M6100 4110 c0 -5 5 -10 10 -10 6 0 10 5 10 10 0 6 -4 10 -10 10 -5 0
-10 -4 -10 -10z"/>
<path d="M6270 3994 c0 -8 5 -12 10 -9 6 3 10 10 10 16 0 5 -4 9 -10 9 -5 0
-10 -7 -10 -16z"/>
<path d="M5532 3969 c2 -6 7 -10 11 -10 4 1 15 1 25 1 14 0 15 2 2 10 -20 13
-43 13 -38 -1z"/>
<path d="M5735 3970 c-17 -7 -14 -9 13 -9 20 -1 31 3 27 9 -7 12 -13 12 -40 0z"/>
<path d="M5622 3952 c-12 -2 -20 -8 -17 -13 8 -12 65 -12 65 0 0 12 -20 18
-48 13z"/>
<path d="M5396 3935 c-8 -8 -32 -15 -55 -15 -23 0 -41 -5 -41 -10 0 -7 19 -8
53 -5 69 9 77 12 77 30 0 19 -14 19 -34 0z"/>
<path d="M5192 3360 c0 -14 2 -19 5 -12 2 6 2 18 0 25 -3 6 -5 1 -5 -13z"/>
<path d="M6066 1754 c-4 -10 -1 -14 6 -12 15 5 23 28 10 28 -5 0 -13 -7 -16
-16z"/>
<path d="M6023 1628 c2 -7 10 -13 17 -13 7 0 15 6 18 13 2 7 -5 12 -18 12 -13
0 -20 -5 -17 -12z"/>
<path d="M5918 1603 c6 -2 18 -2 25 0 6 3 1 5 -13 5 -14 0 -19 -2 -12 -5z"/>
<path d="M6026 1515 c-10 -7 -15 -19 -11 -25 5 -8 13 -6 26 6 33 30 21 46 -15
19z"/>
</g>
</svg>
